<?xml version="1.0" ?><svg data-name="Layer 1" id="Layer_1" viewBox="0 0 64 64" xmlns="http://www.w3.org/2000/svg"><defs><style>.cls-1{fill:#4fbe9f;}.cls-2{fill:#09816c;}.cls-3{fill:#ebeef2;}</style></defs><title/><path class="cls-1" d="M54.06,35.66A6.18,6.18,0,0,1,53,32v0A21,21,0,0,0,24.8,12.32,6.15,6.15,0,0,1,21,12.5a10.13,10.13,0,0,0-3.5-.35A10.22,10.22,0,0,0,9.94,28.34,6.18,6.18,0,0,1,11.05,32v0A21,21,0,0,0,39.2,51.68,6.15,6.15,0,0,1,43,51.5a10.13,10.13,0,0,0,3.5.35,10.22,10.22,0,0,0,7.57-16.19ZM32.77,28.24"/><path class="cls-2" d="M46.11,51.87A10.32,10.32,0,0,0,56,42.71a.45.45,0,0,1,0-.11,7.72,7.72,0,0,0-2.32-6.12L40.93,23.77l-12.51-.85L26,28.33l8.83,5.5L37.75,38l-2.92,2-5.33-.33-6.08.09L34.21,50.55a4.82,4.82,0,0,0,5,1.11h0a5.75,5.75,0,0,1,3.64-.19A10,10,0,0,0,46.11,51.87Z"/><path class="cls-3" d="M32.62,28.88c3.42.82,8.59,2.05,8.59,7.74a6.2,6.2,0,0,1-3.89,6,14.13,14.13,0,0,1-5.56.87,12.26,12.26,0,0,1-8.9-4.35,2.55,2.55,0,0,1,4-3.18,7.59,7.59,0,0,0,4.91,2.43c3.46.11,4.25-.92,4.35-1.8.12-1.07-.83-1.86-4.67-2.77-3.25-.77-8.17-1.94-8.17-7.19,0-1.63.66-7,9.21-7a11.56,11.56,0,0,1,8.72,4.43,2.55,2.55,0,0,1-4.1,3,7.67,7.67,0,0,0-4.62-2.37c-2.07-.19-4.11.55-4.11,1.65S29,28,32.62,28.88Z"/></svg>